<svg xmlns="http://www.w3.org/2000/svg" viewBox="0 0 160 200" role="img" aria-label="Logo Subang">
  <defs>
    <linearGradient id="grad1" x1="0%" y1="0%" x2="0%" y2="100%">
      <stop offset="0%" style="stop-color:#1f6818;stop-opacity:1" />
      <stop offset="100%" style="stop-color:#3fbf4a;stop-opacity:1" />
    </linearGradient>
    <linearGradient id="grad2" x1="0%" y1="0%" x2="100%" y2="0%">
      <stop offset="0%" style="stop-color:#ffdb4a;stop-opacity:1" />
      <stop offset="100%" style="stop-color:#f5c242;stop-opacity:1" />
    </linearGradient>
  </defs>
  <path d="M80 12c-42 0-72 30-72 66 0 76 72 104 72 104s72-28 72-104C152 42 122 12 80 12z" fill="url(#grad1)" stroke="#1d3f1a" stroke-width="6" />
  <path d="M50 58c0-16 20-26 30-26s30 10 30 26v24c0 6-6 12-12 12H62c-6 0-12-6-12-12V58z" fill="#f5f5f5" opacity="0.75" />
  <path d="M80 26l8 22h23l-19 14 7 22-19-14-19 14 7-22-19-14h23z" fill="url(#grad2)" stroke="#e1a00f" stroke-width="3" />
  <path d="M68 98c0 12 6 18 12 18s12-6 12-18v-6h-24v6z" fill="#2b4b1f" />
  <path d="M60 118s8 18 20 18 20-18 20-18v-8H60v8z" fill="#1b3815" />
  <path d="M32 165h96" stroke="#f5f5f5" stroke-width="6" stroke-linecap="round" opacity="0.4" />
  <text x="80" y="186" font-family="Verdana, sans-serif" font-size="18" fill="#ffffff" text-anchor="middle" letter-spacing="1.5">SUBANG</text>
</svg>
